<svg xmlns="http://www.w3.org/2000/svg" xmlns:xlink="http://www.w3.org/1999/xlink" width="500" zoomAndPan="magnify" viewBox="0 0 375 374.999991" height="500" preserveAspectRatio="xMidYMid meet" version="1.0"><defs><g/></defs><g fill="#ffec4e" fill-opacity="1"><g transform="translate(70.88179, 208.499986)"><g><path d="M 0 -30.953125 C 0 -33.234375 0.625 -35.171875 1.875 -36.765625 C 3.132812 -38.359375 4.851562 -39.664062 7.03125 -40.6875 C 9.207031 -41.707031 11.742188 -42.445312 14.640625 -42.90625 C 17.546875 -43.375 20.648438 -43.609375 23.953125 -43.609375 C 25.523438 -43.609375 27.0625 -43.59375 28.5625 -43.5625 C 30.0625 -43.539062 31.425781 -43.5 32.65625 -43.4375 C 33.894531 -43.382812 34.960938 -43.316406 35.859375 -43.234375 C 36.753906 -43.160156 37.40625 -43.070312 37.8125 -42.96875 C 38.195312 -42.875 38.503906 -42.769531 38.734375 -42.65625 C 38.972656 -42.539062 39.148438 -42.40625 39.265625 -42.25 C 39.378906 -42.09375 39.457031 -41.910156 39.5 -41.703125 C 39.539062 -41.503906 39.5625 -41.265625 39.5625 -40.984375 C 39.5625 -40.753906 39.53125 -40.5 39.46875 -40.21875 C 39.414062 -39.9375 39.328125 -39.671875 39.203125 -39.421875 C 39.085938 -39.179688 38.941406 -38.972656 38.765625 -38.796875 C 38.597656 -38.628906 38.382812 -38.546875 38.125 -38.546875 C 37.96875 -38.546875 37.796875 -38.613281 37.609375 -38.75 C 37.429688 -38.882812 37.171875 -39.054688 36.828125 -39.265625 C 36.492188 -39.484375 36.035156 -39.707031 35.453125 -39.9375 C 34.878906 -40.175781 34.113281 -40.398438 33.15625 -40.609375 C 32.195312 -40.828125 31 -41.003906 29.5625 -41.140625 C 28.132812 -41.273438 26.410156 -41.34375 24.390625 -41.34375 L 24.390625 -22.640625 L 36.5 -22.640625 L 36.5 -20.078125 L 24.390625 -20.078125 L 24.390625 -8.671875 C 24.390625 -7.753906 24.523438 -6.96875 24.796875 -6.3125 C 25.066406 -5.664062 25.453125 -5.128906 25.953125 -4.703125 C 26.460938 -4.273438 27.070312 -3.960938 27.78125 -3.765625 C 28.5 -3.566406 29.296875 -3.46875 30.171875 -3.46875 C 31.160156 -3.46875 32.148438 -3.566406 33.140625 -3.765625 C 34.128906 -3.972656 35.066406 -4.234375 35.953125 -4.546875 C 36.835938 -4.859375 37.644531 -5.207031 38.375 -5.59375 C 39.101562 -5.988281 39.691406 -6.367188 40.140625 -6.734375 L 41.28125 -5.484375 C 40.789062 -5.097656 40.140625 -4.566406 39.328125 -3.890625 C 38.515625 -3.222656 37.519531 -2.566406 36.34375 -1.921875 C 35.164062 -1.285156 33.789062 -0.726562 32.21875 -0.25 C 30.65625 0.226562 28.882812 0.46875 26.90625 0.46875 C 26.238281 0.46875 25.484375 0.429688 24.640625 0.359375 C 23.796875 0.296875 22.925781 0.164062 22.03125 -0.03125 C 21.132812 -0.238281 20.253906 -0.539062 19.390625 -0.9375 C 18.523438 -1.34375 17.753906 -1.875 17.078125 -2.53125 C 16.410156 -3.195312 15.867188 -4.007812 15.453125 -4.96875 C 15.035156 -5.9375 14.828125 -7.09375 14.828125 -8.4375 L 14.828125 -20.078125 L 10.265625 -20.078125 L 10.265625 -22.640625 L 14.828125 -22.640625 L 14.828125 -40.984375 C 14.203125 -40.929688 13.484375 -40.820312 12.671875 -40.65625 C 11.867188 -40.488281 11.039062 -40.253906 10.1875 -39.953125 C 9.34375 -39.648438 8.515625 -39.296875 7.703125 -38.890625 C 6.890625 -38.484375 6.160156 -38.003906 5.515625 -37.453125 C 4.867188 -36.910156 4.347656 -36.300781 3.953125 -35.625 C 3.554688 -34.957031 3.359375 -34.238281 3.359375 -33.46875 C 3.359375 -32.84375 3.4375 -32.34375 3.59375 -31.96875 C 3.757812 -31.601562 3.953125 -31.328125 4.171875 -31.140625 C 4.390625 -30.953125 4.609375 -30.832031 4.828125 -30.78125 C 5.046875 -30.738281 5.207031 -30.71875 5.3125 -30.71875 C 5.800781 -30.71875 6.195312 -30.800781 6.5 -30.96875 C 6.8125 -31.132812 7.09375 -31.304688 7.34375 -31.484375 C 7.601562 -31.671875 7.84375 -31.847656 8.0625 -32.015625 C 8.289062 -32.179688 8.550781 -32.265625 8.84375 -32.265625 C 9.070312 -32.265625 9.316406 -32.210938 9.578125 -32.109375 C 9.847656 -32.003906 10.09375 -31.832031 10.3125 -31.59375 C 10.539062 -31.363281 10.726562 -31.054688 10.875 -30.671875 C 11.03125 -30.296875 11.109375 -29.835938 11.109375 -29.296875 C 11.109375 -28.515625 10.957031 -27.835938 10.65625 -27.265625 C 10.363281 -26.691406 9.976562 -26.21875 9.5 -25.84375 C 9.019531 -25.476562 8.472656 -25.203125 7.859375 -25.015625 C 7.242188 -24.828125 6.640625 -24.734375 6.046875 -24.734375 C 5.109375 -24.734375 4.265625 -24.894531 3.515625 -25.21875 C 2.765625 -25.539062 2.125 -25.984375 1.59375 -26.546875 C 1.070312 -27.109375 0.675781 -27.765625 0.40625 -28.515625 C 0.132812 -29.265625 0 -30.078125 0 -30.953125 Z M 0 -30.953125 "/></g></g></g><g fill="#ffec4e" fill-opacity="1"><g transform="translate(112.158737, 208.499986)"><g><path d="M 2.859375 -24.796875 C 2.742188 -25.578125 2.550781 -26.179688 2.28125 -26.609375 C 2.019531 -27.035156 1.582031 -27.25 0.96875 -27.25 C 0.632812 -27.25 0.34375 -27.191406 0.09375 -27.078125 C -0.144531 -26.960938 -0.398438 -26.796875 -0.671875 -26.578125 L -1.25 -27.3125 C -0.800781 -27.675781 -0.300781 -28.035156 0.25 -28.390625 C 0.800781 -28.753906 1.394531 -29.070312 2.03125 -29.34375 C 2.675781 -29.625 3.367188 -29.847656 4.109375 -30.015625 C 4.847656 -30.191406 5.628906 -30.28125 6.453125 -30.28125 C 7.617188 -30.28125 8.5625 -30.082031 9.28125 -29.6875 C 10 -29.289062 10.566406 -28.796875 10.984375 -28.203125 C 11.398438 -27.609375 11.695312 -26.96875 11.875 -26.28125 C 12.050781 -25.601562 12.175781 -24.992188 12.25 -24.453125 C 12.96875 -18.554688 13.773438 -14.085938 14.671875 -11.046875 C 15.566406 -8.015625 16.628906 -6.5 17.859375 -6.5 C 18.535156 -6.5 19.1875 -6.867188 19.8125 -7.609375 C 20.445312 -8.347656 21.003906 -9.359375 21.484375 -10.640625 C 21.960938 -11.929688 22.347656 -13.429688 22.640625 -15.140625 C 22.929688 -16.847656 23.078125 -18.675781 23.078125 -20.625 C 23.078125 -21.90625 22.988281 -22.988281 22.8125 -23.875 C 22.632812 -24.757812 22.4375 -25.503906 22.21875 -26.109375 C 22.007812 -26.710938 21.816406 -27.210938 21.640625 -27.609375 C 21.472656 -28.015625 21.390625 -28.367188 21.390625 -28.671875 C 21.390625 -28.960938 21.503906 -29.207031 21.734375 -29.40625 C 21.960938 -29.601562 22.238281 -29.769531 22.5625 -29.90625 C 22.882812 -30.039062 23.210938 -30.132812 23.546875 -30.1875 C 23.890625 -30.25 24.171875 -30.28125 24.390625 -30.28125 C 24.953125 -30.28125 25.359375 -30.203125 25.609375 -30.046875 C 25.867188 -29.890625 26.078125 -29.585938 26.234375 -29.140625 C 26.398438 -28.578125 26.515625 -27.832031 26.578125 -26.90625 C 26.648438 -25.988281 26.6875 -25.003906 26.6875 -23.953125 C 26.6875 -22.453125 26.582031 -20.804688 26.375 -19.015625 C 26.175781 -17.234375 25.867188 -15.4375 25.453125 -13.625 C 25.035156 -11.8125 24.503906 -10.054688 23.859375 -8.359375 C 23.222656 -6.671875 22.460938 -5.171875 21.578125 -3.859375 C 20.691406 -2.546875 19.6875 -1.492188 18.5625 -0.703125 C 17.445312 0.078125 16.203125 0.46875 14.828125 0.46875 C 13.210938 0.46875 11.8125 0.00390625 10.625 -0.921875 C 9.4375 -1.859375 8.425781 -3.078125 7.59375 -4.578125 C 6.769531 -6.078125 6.082031 -7.757812 5.53125 -9.625 C 4.988281 -11.488281 4.546875 -13.359375 4.203125 -15.234375 C 3.867188 -17.117188 3.597656 -18.898438 3.390625 -20.578125 C 3.191406 -22.265625 3.015625 -23.671875 2.859375 -24.796875 Z M 2.859375 -24.796875 "/></g></g></g><g fill="#ffec4e" fill-opacity="1"><g transform="translate(140.658792, 208.499986)"><g><path d="M 11.171875 -13.390625 C 11.171875 -12.765625 11.265625 -12.085938 11.453125 -11.359375 C 11.640625 -10.628906 11.90625 -9.894531 12.25 -9.15625 C 12.601562 -8.414062 13.035156 -7.710938 13.546875 -7.046875 C 14.066406 -6.378906 14.660156 -5.78125 15.328125 -5.25 C 16.003906 -4.726562 16.75 -4.3125 17.5625 -4 C 18.375 -3.6875 19.269531 -3.53125 20.25 -3.53125 C 20.925781 -3.53125 21.554688 -3.609375 22.140625 -3.765625 C 22.722656 -3.921875 23.265625 -4.132812 23.765625 -4.40625 C 24.273438 -4.675781 24.765625 -4.988281 25.234375 -5.34375 C 25.703125 -5.707031 26.171875 -6.09375 26.640625 -6.5 L 27.359375 -5.8125 C 26.910156 -5.207031 26.335938 -4.546875 25.640625 -3.828125 C 24.941406 -3.109375 24.097656 -2.429688 23.109375 -1.796875 C 22.117188 -1.160156 20.960938 -0.632812 19.640625 -0.21875 C 18.316406 0.195312 16.804688 0.40625 15.109375 0.40625 C 13.421875 0.40625 11.773438 0.101562 10.171875 -0.5 C 8.566406 -1.113281 7.140625 -2.035156 5.890625 -3.265625 C 4.648438 -4.492188 3.65625 -6.019531 2.90625 -7.84375 C 2.15625 -9.675781 1.78125 -11.816406 1.78125 -14.265625 C 1.78125 -16.035156 2.003906 -17.660156 2.453125 -19.140625 C 2.898438 -20.617188 3.503906 -21.953125 4.265625 -23.140625 C 5.035156 -24.328125 5.929688 -25.363281 6.953125 -26.25 C 7.972656 -27.144531 9.046875 -27.890625 10.171875 -28.484375 C 11.304688 -29.078125 12.460938 -29.523438 13.640625 -29.828125 C 14.816406 -30.128906 15.945312 -30.28125 17.03125 -30.28125 C 18.476562 -30.28125 19.734375 -30.125 20.796875 -29.8125 C 21.867188 -29.5 22.757812 -29.082031 23.46875 -28.5625 C 24.175781 -28.039062 24.707031 -27.429688 25.0625 -26.734375 C 25.414062 -26.046875 25.59375 -25.320312 25.59375 -24.5625 C 25.59375 -23.644531 25.328125 -22.820312 24.796875 -22.09375 C 24.273438 -21.363281 23.578125 -20.726562 22.703125 -20.1875 Z M 17.03125 -19.3125 C 17.289062 -19.46875 17.5 -19.617188 17.65625 -19.765625 C 17.820312 -19.910156 17.953125 -20.082031 18.046875 -20.28125 C 18.148438 -20.488281 18.222656 -20.742188 18.265625 -21.046875 C 18.316406 -21.347656 18.34375 -21.722656 18.34375 -22.171875 C 18.34375 -22.660156 18.289062 -23.203125 18.1875 -23.796875 C 18.082031 -24.390625 17.898438 -24.945312 17.640625 -25.46875 C 17.390625 -25.988281 17.070312 -26.425781 16.6875 -26.78125 C 16.300781 -27.132812 15.832031 -27.3125 15.28125 -27.3125 C 14.582031 -27.3125 13.984375 -27.097656 13.484375 -26.671875 C 12.992188 -26.253906 12.585938 -25.710938 12.265625 -25.046875 C 11.941406 -24.390625 11.6875 -23.640625 11.5 -22.796875 C 11.320312 -21.953125 11.179688 -21.101562 11.078125 -20.25 C 10.984375 -19.394531 10.925781 -18.570312 10.90625 -17.78125 C 10.882812 -16.988281 10.875 -16.320312 10.875 -15.78125 Z M 17.03125 -19.3125 "/></g></g></g><g fill="#ffec4e" fill-opacity="1"><g transform="translate(168.312889, 208.499986)"><g><path d="M 20.796875 -14.53125 C 20.796875 -16.976562 20.679688 -18.9375 20.453125 -20.40625 C 20.234375 -21.875 19.9375 -22.992188 19.5625 -23.765625 C 19.195312 -24.535156 18.789062 -25.039062 18.34375 -25.28125 C 17.90625 -25.519531 17.453125 -25.640625 16.984375 -25.640625 C 16.421875 -25.640625 15.921875 -25.488281 15.484375 -25.1875 C 15.046875 -24.882812 14.664062 -24.539062 14.34375 -24.15625 C 14.019531 -23.769531 13.742188 -23.378906 13.515625 -22.984375 C 13.296875 -22.597656 13.109375 -22.304688 12.953125 -22.109375 L 12.953125 -2.625 C 12.953125 -2.375 12.910156 -2.066406 12.828125 -1.703125 C 12.753906 -1.347656 12.566406 -1.007812 12.265625 -0.6875 C 11.960938 -0.363281 11.515625 -0.09375 10.921875 0.125 C 10.328125 0.351562 9.515625 0.46875 8.484375 0.46875 C 7.453125 0.46875 6.640625 0.34375 6.046875 0.09375 C 5.453125 -0.144531 5 -0.425781 4.6875 -0.75 C 4.382812 -1.082031 4.191406 -1.425781 4.109375 -1.78125 C 4.035156 -2.132812 4 -2.414062 4 -2.625 L 4 -25.15625 C 4 -25.71875 3.863281 -26.207031 3.59375 -26.625 C 3.332031 -27.039062 2.894531 -27.25 2.28125 -27.25 C 1.945312 -27.25 1.660156 -27.191406 1.421875 -27.078125 C 1.191406 -26.960938 0.941406 -26.796875 0.671875 -26.578125 L 0.0625 -27.3125 C 0.507812 -27.675781 1.007812 -28.035156 1.5625 -28.390625 C 2.113281 -28.753906 2.707031 -29.070312 3.34375 -29.34375 C 3.988281 -29.625 4.679688 -29.847656 5.421875 -30.015625 C 6.160156 -30.191406 6.941406 -30.28125 7.765625 -30.28125 C 9.023438 -30.28125 10.003906 -30.070312 10.703125 -29.65625 C 11.398438 -29.238281 11.914062 -28.738281 12.25 -28.15625 C 12.582031 -27.570312 12.78125 -26.960938 12.84375 -26.328125 C 12.914062 -25.691406 12.953125 -25.160156 12.953125 -24.734375 C 13.671875 -25.765625 14.488281 -26.691406 15.40625 -27.515625 C 15.769531 -27.859375 16.179688 -28.195312 16.640625 -28.53125 C 17.097656 -28.863281 17.582031 -29.160156 18.09375 -29.421875 C 18.613281 -29.679688 19.160156 -29.890625 19.734375 -30.046875 C 20.304688 -30.203125 20.894531 -30.28125 21.5 -30.28125 C 22.820312 -30.28125 23.992188 -30.023438 25.015625 -29.515625 C 26.035156 -29.015625 26.894531 -28.171875 27.59375 -26.984375 C 28.300781 -25.796875 28.835938 -24.222656 29.203125 -22.265625 C 29.578125 -20.316406 29.765625 -17.894531 29.765625 -15 C 29.765625 -12.175781 29.507812 -9.722656 29 -7.640625 C 28.488281 -5.554688 27.828125 -3.785156 27.015625 -2.328125 C 26.203125 -0.867188 25.28125 0.316406 24.25 1.234375 C 23.21875 2.160156 22.175781 2.882812 21.125 3.40625 C 20.070312 3.9375 19.0625 4.300781 18.09375 4.5 C 17.132812 4.707031 16.304688 4.820312 15.609375 4.84375 L 15.28125 3.640625 C 15.863281 3.503906 16.40625 3.289062 16.90625 3 C 17.40625 2.707031 17.859375 2.28125 18.265625 1.71875 C 18.671875 1.15625 19.03125 0.441406 19.34375 -0.421875 C 19.65625 -1.285156 19.921875 -2.367188 20.140625 -3.671875 C 20.367188 -4.972656 20.535156 -6.515625 20.640625 -8.296875 C 20.742188 -10.078125 20.796875 -12.15625 20.796875 -14.53125 Z M 20.796875 -14.53125 "/></g></g></g><g fill="#ffec4e" fill-opacity="1"><g transform="translate(200.459318, 208.499986)"><g><path d="M 13.09375 -27.78125 L 13.09375 -6.21875 C 13.09375 -5.1875 13.285156 -4.46875 13.671875 -4.0625 C 14.066406 -3.664062 14.601562 -3.46875 15.28125 -3.46875 C 15.8125 -3.46875 16.28125 -3.613281 16.6875 -3.90625 C 17.09375 -4.195312 17.441406 -4.53125 17.734375 -4.90625 C 18.085938 -5.3125 18.390625 -5.785156 18.640625 -6.328125 L 19.546875 -5.921875 C 19.253906 -5.296875 18.90625 -4.613281 18.5 -3.875 C 18.101562 -3.132812 17.570312 -2.445312 16.90625 -1.8125 C 16.25 -1.1875 15.421875 -0.660156 14.421875 -0.234375 C 13.421875 0.191406 12.164062 0.40625 10.65625 0.40625 C 9.789062 0.40625 8.960938 0.28125 8.171875 0.03125 C 7.390625 -0.21875 6.691406 -0.613281 6.078125 -1.15625 C 5.460938 -1.707031 4.972656 -2.390625 4.609375 -3.203125 C 4.242188 -4.023438 4.0625 -5.007812 4.0625 -6.15625 L 4.0625 -27.78125 L 0.78125 -27.78125 L 0.78125 -29.875 C 1.332031 -29.875 2.09375 -30.015625 3.0625 -30.296875 C 4.03125 -30.578125 5.023438 -31.046875 6.046875 -31.703125 C 7.066406 -32.367188 8.015625 -33.253906 8.890625 -34.359375 C 9.773438 -35.472656 10.398438 -36.847656 10.765625 -38.484375 L 13.09375 -38.484375 L 13.09375 -29.875 L 17.859375 -29.875 C 19.410156 -29.875 20.1875 -30.132812 20.1875 -30.65625 C 20.1875 -30.851562 20.085938 -30.984375 19.890625 -31.046875 C 19.703125 -31.117188 19.484375 -31.207031 19.234375 -31.3125 C 18.992188 -31.425781 18.773438 -31.578125 18.578125 -31.765625 C 18.390625 -31.960938 18.296875 -32.285156 18.296875 -32.734375 C 18.296875 -33.273438 18.460938 -33.703125 18.796875 -34.015625 C 19.140625 -34.328125 19.582031 -34.484375 20.125 -34.484375 C 20.476562 -34.484375 20.785156 -34.410156 21.046875 -34.265625 C 21.304688 -34.117188 21.523438 -33.921875 21.703125 -33.671875 C 21.878906 -33.429688 22.007812 -33.15625 22.09375 -32.84375 C 22.1875 -32.539062 22.234375 -32.234375 22.234375 -31.921875 C 22.234375 -30.648438 21.867188 -29.640625 21.140625 -28.890625 C 20.410156 -28.148438 19.238281 -27.78125 17.625 -27.78125 Z M 13.09375 -27.78125 "/></g></g></g><g fill="#ffec4e" fill-opacity="1"><g transform="translate(220.5873, 208.499986)"><g><path d="M 1.78125 -14.9375 C 1.78125 -17.488281 2.148438 -19.71875 2.890625 -21.625 C 3.628906 -23.539062 4.613281 -25.140625 5.84375 -26.421875 C 7.082031 -27.710938 8.519531 -28.675781 10.15625 -29.3125 C 11.789062 -29.957031 13.5 -30.28125 15.28125 -30.28125 C 17.070312 -30.28125 18.785156 -29.984375 20.421875 -29.390625 C 22.054688 -28.796875 23.488281 -27.882812 24.71875 -26.65625 C 25.957031 -25.4375 26.945312 -23.890625 27.6875 -22.015625 C 28.425781 -20.140625 28.796875 -17.914062 28.796875 -15.34375 C 28.796875 -12.800781 28.425781 -10.546875 27.6875 -8.578125 C 26.945312 -6.609375 25.957031 -4.953125 24.71875 -3.609375 C 23.488281 -2.273438 22.054688 -1.257812 20.421875 -0.5625 C 18.785156 0.125 17.070312 0.46875 15.28125 0.46875 C 13.5 0.46875 11.789062 0.144531 10.15625 -0.5 C 8.519531 -1.15625 7.082031 -2.125 5.84375 -3.40625 C 4.613281 -4.695312 3.628906 -6.300781 2.890625 -8.21875 C 2.148438 -10.144531 1.78125 -12.382812 1.78125 -14.9375 Z M 19.71875 -15.234375 C 19.71875 -16.785156 19.664062 -18.285156 19.5625 -19.734375 C 19.457031 -21.179688 19.25 -22.46875 18.9375 -23.59375 C 18.625 -24.726562 18.175781 -25.628906 17.59375 -26.296875 C 17.007812 -26.972656 16.238281 -27.3125 15.28125 -27.3125 C 14.332031 -27.3125 13.566406 -26.953125 12.984375 -26.234375 C 12.398438 -25.523438 11.953125 -24.59375 11.640625 -23.4375 C 11.328125 -22.28125 11.117188 -20.960938 11.015625 -19.484375 C 10.921875 -18.003906 10.875 -16.488281 10.875 -14.9375 C 10.875 -13.382812 10.921875 -11.863281 11.015625 -10.375 C 11.117188 -8.882812 11.328125 -7.554688 11.640625 -6.390625 C 11.953125 -5.222656 12.398438 -4.285156 12.984375 -3.578125 C 13.566406 -2.867188 14.332031 -2.515625 15.28125 -2.515625 C 16.238281 -2.515625 17.007812 -2.878906 17.59375 -3.609375 C 18.175781 -4.347656 18.625 -5.320312 18.9375 -6.53125 C 19.25 -7.738281 19.457031 -9.097656 19.5625 -10.609375 C 19.664062 -12.128906 19.71875 -13.671875 19.71875 -15.234375 Z M 19.71875 -15.234375 "/></g></g></g><g fill="#ffec4e" fill-opacity="1"><g transform="translate(251.187666, 208.499986)"><g><path d="M 12.953125 -24.125 C 13.691406 -25.25 14.476562 -26.269531 15.3125 -27.1875 C 15.664062 -27.582031 16.046875 -27.960938 16.453125 -28.328125 C 16.859375 -28.703125 17.28125 -29.035156 17.71875 -29.328125 C 18.15625 -29.617188 18.609375 -29.847656 19.078125 -30.015625 C 19.546875 -30.191406 20.015625 -30.28125 20.484375 -30.28125 C 21.472656 -30.28125 22.25 -29.984375 22.8125 -29.390625 C 23.375 -28.796875 23.65625 -27.96875 23.65625 -26.90625 C 23.65625 -26.238281 23.601562 -25.597656 23.5 -24.984375 C 23.394531 -24.367188 23.1875 -23.625 22.875 -22.75 L 22.0625 -22.75 C 21.9375 -23.351562 21.660156 -23.851562 21.234375 -24.25 C 20.804688 -24.65625 20.1875 -24.859375 19.375 -24.859375 C 18.769531 -24.859375 18.175781 -24.742188 17.59375 -24.515625 C 17.007812 -24.296875 16.4375 -24.019531 15.875 -23.6875 C 15.320312 -23.351562 14.796875 -22.992188 14.296875 -22.609375 C 13.804688 -22.222656 13.359375 -21.851562 12.953125 -21.5 L 12.953125 -2.5625 C 12.953125 -2.3125 12.910156 -2.007812 12.828125 -1.65625 C 12.753906 -1.3125 12.566406 -0.984375 12.265625 -0.671875 C 11.960938 -0.359375 11.515625 -0.09375 10.921875 0.125 C 10.328125 0.351562 9.515625 0.46875 8.484375 0.46875 C 7.453125 0.46875 6.640625 0.34375 6.046875 0.09375 C 5.453125 -0.144531 5 -0.425781 4.6875 -0.75 C 4.382812 -1.082031 4.191406 -1.425781 4.109375 -1.78125 C 4.035156 -2.132812 4 -2.414062 4 -2.625 L 4 -25.15625 C 4 -25.71875 3.863281 -26.207031 3.59375 -26.625 C 3.332031 -27.039062 2.894531 -27.25 2.28125 -27.25 C 1.945312 -27.25 1.660156 -27.191406 1.421875 -27.078125 C 1.191406 -26.960938 0.941406 -26.796875 0.671875 -26.578125 L 0.0625 -27.3125 C 0.507812 -27.675781 1.007812 -28.035156 1.5625 -28.390625 C 2.113281 -28.753906 2.707031 -29.070312 3.34375 -29.34375 C 3.988281 -29.625 4.679688 -29.847656 5.421875 -30.015625 C 6.160156 -30.191406 6.941406 -30.28125 7.765625 -30.28125 C 8.597656 -30.28125 9.3125 -30.164062 9.90625 -29.9375 C 10.5 -29.71875 10.984375 -29.425781 11.359375 -29.0625 C 11.742188 -28.707031 12.039062 -28.304688 12.25 -27.859375 C 12.46875 -27.410156 12.628906 -26.957031 12.734375 -26.5 C 12.835938 -26.039062 12.898438 -25.601562 12.921875 -25.1875 C 12.941406 -24.769531 12.953125 -24.414062 12.953125 -24.125 Z M 12.953125 -24.125 "/></g></g></g><g fill="#ffec4e" fill-opacity="1"><g transform="translate(274.903679, 208.499986)"><g><path d="M 16.78125 -15.109375 C 16.78125 -15.597656 16.625 -15.96875 16.3125 -16.21875 C 16 -16.46875 15.597656 -16.59375 15.109375 -16.59375 C 14.429688 -16.59375 13.785156 -16.4375 13.171875 -16.125 C 12.554688 -15.820312 12.015625 -15.367188 11.546875 -14.765625 C 11.085938 -14.160156 10.71875 -13.414062 10.4375 -12.53125 C 10.164062 -11.644531 10.03125 -10.617188 10.03125 -9.453125 C 10.03125 -8.328125 10.113281 -7.394531 10.28125 -6.65625 C 10.445312 -5.914062 10.671875 -5.328125 10.953125 -4.890625 C 11.234375 -4.453125 11.554688 -4.144531 11.921875 -3.96875 C 12.296875 -3.789062 12.6875 -3.703125 13.09375 -3.703125 C 13.601562 -3.703125 14.082031 -3.832031 14.53125 -4.09375 C 14.976562 -4.363281 15.363281 -4.703125 15.6875 -5.109375 C 16.019531 -5.515625 16.285156 -5.96875 16.484375 -6.46875 C 16.679688 -6.976562 16.78125 -7.488281 16.78125 -8 Z M 12.140625 -27.890625 C 11.472656 -27.890625 10.859375 -27.8125 10.296875 -27.65625 C 9.734375 -27.5 9.25 -27.300781 8.84375 -27.0625 C 8.4375 -26.832031 8.113281 -26.578125 7.875 -26.296875 C 7.644531 -26.015625 7.53125 -25.75 7.53125 -25.5 C 7.53125 -25.207031 7.679688 -25 7.984375 -24.875 C 8.285156 -24.75 8.617188 -24.601562 8.984375 -24.4375 C 9.359375 -24.269531 9.691406 -24.035156 9.984375 -23.734375 C 10.285156 -23.429688 10.4375 -22.96875 10.4375 -22.34375 C 10.4375 -21.9375 10.351562 -21.5625 10.1875 -21.21875 C 10.03125 -20.882812 9.8125 -20.582031 9.53125 -20.3125 C 9.25 -20.050781 8.914062 -19.847656 8.53125 -19.703125 C 8.15625 -19.554688 7.765625 -19.484375 7.359375 -19.484375 C 6.265625 -19.484375 5.378906 -19.851562 4.703125 -20.59375 C 4.035156 -21.332031 3.703125 -22.316406 3.703125 -23.546875 C 3.703125 -24.734375 4.015625 -25.75 4.640625 -26.59375 C 5.265625 -27.4375 6.078125 -28.128906 7.078125 -28.671875 C 8.078125 -29.222656 9.207031 -29.628906 10.46875 -29.890625 C 11.738281 -30.148438 13.003906 -30.28125 14.265625 -30.28125 C 15.785156 -30.28125 17.234375 -30.113281 18.609375 -29.78125 C 19.992188 -29.457031 21.210938 -28.929688 22.265625 -28.203125 C 23.328125 -27.484375 24.175781 -26.570312 24.8125 -25.46875 C 25.445312 -24.363281 25.765625 -23.019531 25.765625 -21.4375 L 25.765625 -4.953125 C 25.765625 -4.785156 25.769531 -4.59375 25.78125 -4.375 C 25.800781 -4.164062 25.847656 -3.972656 25.921875 -3.796875 C 26.003906 -3.617188 26.125 -3.472656 26.28125 -3.359375 C 26.4375 -3.242188 26.660156 -3.1875 26.953125 -3.1875 C 27.304688 -3.1875 27.632812 -3.316406 27.9375 -3.578125 C 28.238281 -3.835938 28.503906 -4.101562 28.734375 -4.375 L 29.46875 -3.765625 C 29.175781 -3.359375 28.820312 -2.910156 28.40625 -2.421875 C 28 -1.929688 27.503906 -1.472656 26.921875 -1.046875 C 26.335938 -0.617188 25.65625 -0.257812 24.875 0.03125 C 24.101562 0.320312 23.222656 0.46875 22.234375 0.46875 C 21.003906 0.46875 19.910156 0.101562 18.953125 -0.625 C 18.003906 -1.351562 17.382812 -2.476562 17.09375 -4 C 16.46875 -3.164062 15.820312 -2.460938 15.15625 -1.890625 C 14.488281 -1.328125 13.800781 -0.867188 13.09375 -0.515625 C 12.394531 -0.171875 11.691406 0.078125 10.984375 0.234375 C 10.273438 0.390625 9.5625 0.46875 8.84375 0.46875 C 7.90625 0.46875 7 0.320312 6.125 0.03125 C 5.25 -0.257812 4.46875 -0.722656 3.78125 -1.359375 C 3.09375 -1.992188 2.535156 -2.816406 2.109375 -3.828125 C 1.691406 -4.835938 1.484375 -6.070312 1.484375 -7.53125 C 1.484375 -9.300781 1.832031 -10.75 2.53125 -11.875 C 3.238281 -13 4.160156 -13.945312 5.296875 -14.71875 C 6.429688 -15.488281 7.722656 -16.144531 9.171875 -16.6875 C 10.617188 -17.226562 12.101562 -17.800781 13.625 -18.40625 C 14.75 -18.851562 15.566406 -19.519531 16.078125 -20.40625 C 16.597656 -21.289062 16.859375 -22.203125 16.859375 -23.140625 C 16.859375 -24.578125 16.4375 -25.726562 15.59375 -26.59375 C 14.75 -27.457031 13.597656 -27.890625 12.140625 -27.890625 Z M 12.140625 -27.890625 "/></g></g></g></svg>