<svg xmlns="http://www.w3.org/2000/svg" xmlns:xlink="http://www.w3.org/1999/xlink" width="1000" zoomAndPan="magnify" viewBox="0 0 750 299.999988" height="400" preserveAspectRatio="xMidYMid meet" version="1.0"><defs><g/></defs><g fill="#1b4a56" fill-opacity="1"><g transform="translate(50.641357, 200.772433)"><g><path d="M 0 -85.90625 C 0 -92.21875 1.738281 -97.585938 5.21875 -102.015625 C 8.695312 -106.441406 13.457031 -110.070312 19.5 -112.90625 C 25.550781 -115.738281 32.597656 -117.800781 40.640625 -119.09375 C 48.679688 -120.394531 57.289062 -121.046875 66.46875 -121.046875 C 70.84375 -121.046875 75.109375 -121.003906 79.265625 -120.921875 C 83.421875 -120.835938 87.210938 -120.710938 90.640625 -120.546875 C 94.066406 -120.390625 97.019531 -120.203125 99.5 -119.984375 C 101.988281 -119.765625 103.796875 -119.523438 104.921875 -119.265625 C 106.003906 -118.992188 106.867188 -118.691406 107.515625 -118.359375 C 108.160156 -118.035156 108.644531 -117.660156 108.96875 -117.234375 C 109.300781 -116.804688 109.519531 -116.304688 109.625 -115.734375 C 109.726562 -115.171875 109.78125 -114.507812 109.78125 -113.75 C 109.78125 -113.101562 109.695312 -112.390625 109.53125 -111.609375 C 109.375 -110.828125 109.132812 -110.097656 108.8125 -109.421875 C 108.488281 -108.742188 108.082031 -108.160156 107.59375 -107.671875 C 107.113281 -107.191406 106.519531 -106.953125 105.8125 -106.953125 C 105.382812 -106.953125 104.914062 -107.140625 104.40625 -107.515625 C 103.894531 -107.890625 103.164062 -108.375 102.21875 -108.96875 C 101.269531 -109.5625 100 -110.179688 98.40625 -110.828125 C 96.8125 -111.484375 94.675781 -112.109375 92 -112.703125 C 89.332031 -113.296875 86.015625 -113.78125 82.046875 -114.15625 C 78.085938 -114.53125 73.300781 -114.71875 67.6875 -114.71875 L 67.6875 -62.828125 L 101.28125 -62.828125 L 101.28125 -55.703125 L 67.6875 -55.703125 L 67.6875 -24.046875 C 67.6875 -21.503906 68.0625 -19.328125 68.8125 -17.515625 C 69.570312 -15.710938 70.648438 -14.21875 72.046875 -13.03125 C 73.453125 -11.84375 75.140625 -10.976562 77.109375 -10.4375 C 79.085938 -9.90625 81.289062 -9.640625 83.71875 -9.640625 C 86.46875 -9.640625 89.21875 -9.921875 91.96875 -10.484375 C 94.726562 -11.046875 97.332031 -11.757812 99.78125 -12.625 C 102.238281 -13.488281 104.476562 -14.460938 106.5 -15.546875 C 108.53125 -16.628906 110.164062 -17.679688 111.40625 -18.703125 L 114.5625 -15.21875 C 113.207031 -14.144531 111.394531 -12.675781 109.125 -10.8125 C 106.863281 -8.945312 104.097656 -7.125 100.828125 -5.34375 C 97.566406 -3.5625 93.765625 -2.007812 89.421875 -0.6875 C 85.078125 0.632812 80.148438 1.296875 74.640625 1.296875 C 72.804688 1.296875 70.710938 1.203125 68.359375 1.015625 C 66.015625 0.828125 63.601562 0.453125 61.125 -0.109375 C 58.644531 -0.679688 56.203125 -1.519531 53.796875 -2.625 C 51.398438 -3.738281 49.269531 -5.210938 47.40625 -7.046875 C 45.539062 -8.878906 44.023438 -11.128906 42.859375 -13.796875 C 41.703125 -16.472656 41.125 -19.671875 41.125 -23.390625 L 41.125 -55.703125 L 28.5 -55.703125 L 28.5 -62.828125 L 41.125 -62.828125 L 41.125 -113.75 C 39.394531 -113.59375 37.410156 -113.285156 35.171875 -112.828125 C 32.929688 -112.367188 30.640625 -111.71875 28.296875 -110.875 C 25.953125 -110.039062 23.644531 -109.054688 21.375 -107.921875 C 19.101562 -106.785156 17.078125 -105.460938 15.296875 -103.953125 C 13.515625 -102.441406 12.070312 -100.753906 10.96875 -98.890625 C 9.863281 -97.035156 9.3125 -95.023438 9.3125 -92.859375 C 9.3125 -91.140625 9.539062 -89.765625 10 -88.734375 C 10.457031 -87.710938 10.984375 -86.941406 11.578125 -86.421875 C 12.171875 -85.910156 12.773438 -85.585938 13.390625 -85.453125 C 14.015625 -85.316406 14.460938 -85.25 14.734375 -85.25 C 16.085938 -85.25 17.191406 -85.476562 18.046875 -85.9375 C 18.910156 -86.394531 19.691406 -86.878906 20.390625 -87.390625 C 21.097656 -87.910156 21.757812 -88.398438 22.375 -88.859375 C 23 -89.316406 23.71875 -89.546875 24.53125 -89.546875 C 25.175781 -89.546875 25.863281 -89.394531 26.59375 -89.09375 C 27.320312 -88.800781 27.992188 -88.332031 28.609375 -87.6875 C 29.234375 -87.039062 29.757812 -86.1875 30.1875 -85.125 C 30.625 -84.070312 30.84375 -82.789062 30.84375 -81.28125 C 30.84375 -79.125 30.425781 -77.25 29.59375 -75.65625 C 28.757812 -74.0625 27.679688 -72.75 26.359375 -71.71875 C 25.035156 -70.695312 23.519531 -69.929688 21.8125 -69.421875 C 20.113281 -68.910156 18.429688 -68.65625 16.765625 -68.65625 C 14.171875 -68.65625 11.832031 -69.097656 9.75 -69.984375 C 7.675781 -70.878906 5.910156 -72.109375 4.453125 -73.671875 C 2.992188 -75.242188 1.882812 -77.066406 1.125 -79.140625 C 0.375 -81.222656 0 -83.476562 0 -85.90625 Z M 0 -85.90625 "/></g></g></g><g fill="#1b4a56" fill-opacity="1"><g transform="translate(165.179859, 200.772433)"><g><path d="M 7.9375 -68.8125 C 7.613281 -70.976562 7.085938 -72.65625 6.359375 -73.84375 C 5.628906 -75.03125 4.398438 -75.625 2.671875 -75.625 C 1.753906 -75.625 0.957031 -75.457031 0.28125 -75.125 C -0.394531 -74.800781 -1.109375 -74.34375 -1.859375 -73.75 L -3.484375 -75.78125 C -2.242188 -76.800781 -0.851562 -77.8125 0.6875 -78.8125 C 2.226562 -79.8125 3.890625 -80.6875 5.671875 -81.4375 C 7.453125 -82.195312 9.367188 -82.820312 11.421875 -83.3125 C 13.472656 -83.800781 15.628906 -84.046875 17.890625 -84.046875 C 21.128906 -84.046875 23.742188 -83.488281 25.734375 -82.375 C 27.734375 -81.269531 29.3125 -79.894531 30.46875 -78.25 C 31.632812 -76.601562 32.460938 -74.832031 32.953125 -72.9375 C 33.441406 -71.050781 33.789062 -69.351562 34 -67.84375 C 36 -51.488281 38.238281 -39.101562 40.71875 -30.6875 C 43.207031 -22.269531 46.148438 -18.0625 49.546875 -18.0625 C 51.441406 -18.0625 53.265625 -19.082031 55.015625 -21.125 C 56.765625 -23.175781 58.300781 -25.984375 59.625 -29.546875 C 60.945312 -33.109375 62.015625 -37.265625 62.828125 -42.015625 C 63.640625 -46.765625 64.046875 -51.835938 64.046875 -57.234375 C 64.046875 -60.796875 63.800781 -63.804688 63.3125 -66.265625 C 62.820312 -68.722656 62.28125 -70.785156 61.6875 -72.453125 C 61.09375 -74.128906 60.550781 -75.519531 60.0625 -76.625 C 59.582031 -77.738281 59.34375 -78.726562 59.34375 -79.59375 C 59.34375 -80.394531 59.664062 -81.066406 60.3125 -81.609375 C 60.96875 -82.148438 61.738281 -82.609375 62.625 -82.984375 C 63.507812 -83.359375 64.425781 -83.628906 65.375 -83.796875 C 66.320312 -83.960938 67.09375 -84.046875 67.6875 -84.046875 C 69.25 -84.046875 70.378906 -83.828125 71.078125 -83.390625 C 71.785156 -82.960938 72.351562 -82.125 72.78125 -80.875 C 73.269531 -79.3125 73.609375 -77.25 73.796875 -74.6875 C 73.984375 -72.125 74.078125 -69.382812 74.078125 -66.46875 C 74.078125 -62.3125 73.789062 -57.75 73.21875 -52.78125 C 72.65625 -47.820312 71.796875 -42.832031 70.640625 -37.8125 C 69.484375 -32.789062 68.015625 -27.929688 66.234375 -23.234375 C 64.453125 -18.535156 62.332031 -14.363281 59.875 -10.71875 C 57.414062 -7.082031 54.632812 -4.171875 51.53125 -1.984375 C 48.425781 0.203125 44.957031 1.296875 41.125 1.296875 C 36.644531 1.296875 32.757812 0 29.46875 -2.59375 C 26.175781 -5.1875 23.382812 -8.5625 21.09375 -12.71875 C 18.800781 -16.875 16.894531 -21.539062 15.375 -26.71875 C 13.863281 -31.894531 12.632812 -37.085938 11.6875 -42.296875 C 10.75 -47.503906 9.992188 -52.441406 9.421875 -57.109375 C 8.859375 -61.785156 8.363281 -65.6875 7.9375 -68.8125 Z M 7.9375 -68.8125 "/></g></g></g><g fill="#1b4a56" fill-opacity="1"><g transform="translate(244.264041, 200.772433)"><g><path d="M 31.015625 -37.15625 C 31.015625 -35.4375 31.269531 -33.5625 31.78125 -31.53125 C 32.289062 -29.507812 33.03125 -27.472656 34 -25.421875 C 34.976562 -23.367188 36.179688 -21.410156 37.609375 -19.546875 C 39.035156 -17.691406 40.679688 -16.035156 42.546875 -14.578125 C 44.410156 -13.117188 46.472656 -11.957031 48.734375 -11.09375 C 51.003906 -10.226562 53.488281 -9.796875 56.1875 -9.796875 C 58.070312 -9.796875 59.820312 -10.007812 61.4375 -10.4375 C 63.0625 -10.875 64.578125 -11.46875 65.984375 -12.21875 C 67.390625 -12.976562 68.738281 -13.859375 70.03125 -14.859375 C 71.320312 -15.859375 72.617188 -16.925781 73.921875 -18.0625 L 75.9375 -16.109375 C 74.695312 -14.441406 73.101562 -12.609375 71.15625 -10.609375 C 69.21875 -8.609375 66.875 -6.726562 64.125 -4.96875 C 61.375 -3.21875 58.160156 -1.757812 54.484375 -0.59375 C 50.816406 0.5625 46.632812 1.140625 41.9375 1.140625 C 37.238281 1.140625 32.660156 0.289062 28.203125 -1.40625 C 23.753906 -3.113281 19.800781 -5.664062 16.34375 -9.0625 C 12.894531 -12.46875 10.128906 -16.707031 8.046875 -21.78125 C 5.972656 -26.851562 4.9375 -32.789062 4.9375 -39.59375 C 4.9375 -44.5 5.554688 -49.003906 6.796875 -53.109375 C 8.035156 -57.210938 9.722656 -60.910156 11.859375 -64.203125 C 13.992188 -67.492188 16.476562 -70.378906 19.3125 -72.859375 C 22.144531 -75.347656 25.125 -77.414062 28.25 -79.0625 C 31.382812 -80.707031 34.582031 -81.945312 37.84375 -82.78125 C 41.113281 -83.625 44.257812 -84.046875 47.28125 -84.046875 C 51.28125 -84.046875 54.765625 -83.613281 57.734375 -82.75 C 60.703125 -81.882812 63.171875 -80.722656 65.140625 -79.265625 C 67.109375 -77.804688 68.578125 -76.117188 69.546875 -74.203125 C 70.515625 -72.285156 71 -70.273438 71 -68.171875 C 71 -65.628906 70.269531 -63.347656 68.8125 -61.328125 C 67.351562 -59.304688 65.410156 -57.539062 62.984375 -56.03125 Z M 47.28125 -53.59375 C 47.976562 -54.03125 48.554688 -54.445312 49.015625 -54.84375 C 49.484375 -55.25 49.847656 -55.734375 50.109375 -56.296875 C 50.378906 -56.867188 50.582031 -57.570312 50.71875 -58.40625 C 50.851562 -59.25 50.921875 -60.289062 50.921875 -61.53125 C 50.921875 -62.882812 50.769531 -64.382812 50.46875 -66.03125 C 50.175781 -67.675781 49.679688 -69.222656 48.984375 -70.671875 C 48.285156 -72.128906 47.394531 -73.34375 46.3125 -74.3125 C 45.226562 -75.289062 43.929688 -75.78125 42.421875 -75.78125 C 40.484375 -75.78125 38.820312 -75.195312 37.4375 -74.03125 C 36.0625 -72.875 34.925781 -71.378906 34.03125 -69.546875 C 33.144531 -67.710938 32.445312 -65.617188 31.9375 -63.265625 C 31.425781 -60.921875 31.035156 -58.5625 30.765625 -56.1875 C 30.492188 -53.8125 30.332031 -51.53125 30.28125 -49.34375 C 30.226562 -47.15625 30.203125 -45.304688 30.203125 -43.796875 Z M 47.28125 -53.59375 "/></g></g></g><g fill="#1b4a56" fill-opacity="1"><g transform="translate(321.00079, 200.772433)"><g><path d="M 57.734375 -40.3125 C 57.734375 -47.113281 57.421875 -52.550781 56.796875 -56.625 C 56.171875 -60.707031 55.34375 -63.8125 54.3125 -65.9375 C 53.289062 -68.070312 52.160156 -69.476562 50.921875 -70.15625 C 49.679688 -70.832031 48.414062 -71.171875 47.125 -71.171875 C 45.550781 -71.171875 44.15625 -70.75 42.9375 -69.90625 C 41.726562 -69.070312 40.675781 -68.113281 39.78125 -67.03125 C 38.894531 -65.957031 38.140625 -64.878906 37.515625 -63.796875 C 36.898438 -62.722656 36.378906 -61.914062 35.953125 -61.375 L 35.953125 -7.28125 C 35.953125 -6.582031 35.84375 -5.734375 35.625 -4.734375 C 35.40625 -3.734375 34.878906 -2.785156 34.046875 -1.890625 C 33.210938 -1.003906 31.96875 -0.253906 30.3125 0.359375 C 28.664062 0.984375 26.414062 1.296875 23.5625 1.296875 C 20.695312 1.296875 18.441406 0.957031 16.796875 0.28125 C 15.148438 -0.394531 13.894531 -1.191406 13.03125 -2.109375 C 12.164062 -3.023438 11.625 -3.96875 11.40625 -4.9375 C 11.195312 -5.90625 11.09375 -6.6875 11.09375 -7.28125 L 11.09375 -69.796875 C 11.09375 -71.359375 10.726562 -72.71875 10 -73.875 C 9.269531 -75.039062 8.039062 -75.625 6.3125 -75.625 C 5.394531 -75.625 4.613281 -75.457031 3.96875 -75.125 C 3.320312 -74.800781 2.617188 -74.34375 1.859375 -73.75 L 0.15625 -75.78125 C 1.40625 -76.800781 2.796875 -77.8125 4.328125 -78.8125 C 5.867188 -79.8125 7.53125 -80.6875 9.3125 -81.4375 C 11.09375 -82.195312 13.007812 -82.820312 15.0625 -83.3125 C 17.113281 -83.800781 19.269531 -84.046875 21.53125 -84.046875 C 25.039062 -84.046875 27.765625 -83.460938 29.703125 -82.296875 C 31.648438 -81.140625 33.082031 -79.75 34 -78.125 C 34.914062 -76.507812 35.46875 -74.820312 35.65625 -73.0625 C 35.851562 -71.3125 35.953125 -69.84375 35.953125 -68.65625 C 37.941406 -71.519531 40.207031 -74.082031 42.75 -76.34375 C 43.769531 -77.320312 44.914062 -78.269531 46.1875 -79.1875 C 47.457031 -80.101562 48.804688 -80.925781 50.234375 -81.65625 C 51.671875 -82.382812 53.179688 -82.960938 54.765625 -83.390625 C 56.359375 -83.828125 57.992188 -84.046875 59.671875 -84.046875 C 63.335938 -84.046875 66.585938 -83.34375 69.421875 -81.9375 C 72.253906 -80.53125 74.640625 -78.179688 76.578125 -74.890625 C 78.523438 -71.597656 80.007812 -67.238281 81.03125 -61.8125 C 82.0625 -56.382812 82.578125 -49.648438 82.578125 -41.609375 C 82.578125 -33.785156 81.875 -26.984375 80.46875 -21.203125 C 79.070312 -15.429688 77.238281 -10.519531 74.96875 -6.46875 C 72.707031 -2.425781 70.144531 0.875 67.28125 3.4375 C 64.414062 6 61.523438 8.007812 58.609375 9.46875 C 55.703125 10.925781 52.910156 11.9375 50.234375 12.5 C 47.566406 13.070312 45.257812 13.382812 43.3125 13.4375 L 42.421875 10.125 C 44.046875 9.738281 45.546875 9.140625 46.921875 8.328125 C 48.296875 7.523438 49.550781 6.335938 50.6875 4.765625 C 51.820312 3.203125 52.816406 1.222656 53.671875 -1.171875 C 54.535156 -3.578125 55.28125 -6.585938 55.90625 -10.203125 C 56.53125 -13.816406 56.988281 -18.09375 57.28125 -23.03125 C 57.582031 -27.96875 57.734375 -33.726562 57.734375 -40.3125 Z M 57.734375 -40.3125 "/></g></g></g><g fill="#1b4a56" fill-opacity="1"><g transform="translate(410.203215, 200.772433)"><g><path d="M 36.359375 -77.078125 L 36.359375 -17.25 C 36.359375 -14.382812 36.894531 -12.398438 37.96875 -11.296875 C 39.050781 -10.191406 40.535156 -9.640625 42.421875 -9.640625 C 43.878906 -9.640625 45.175781 -10.039062 46.3125 -10.84375 C 47.445312 -11.65625 48.414062 -12.578125 49.21875 -13.609375 C 50.195312 -14.734375 51.035156 -16.050781 51.734375 -17.5625 L 54.25 -16.4375 C 53.4375 -14.707031 52.476562 -12.816406 51.375 -10.765625 C 50.269531 -8.710938 48.796875 -6.804688 46.953125 -5.046875 C 45.117188 -3.296875 42.8125 -1.828125 40.03125 -0.640625 C 37.25 0.546875 33.753906 1.140625 29.546875 1.140625 C 27.171875 1.140625 24.890625 0.785156 22.703125 0.078125 C 20.523438 -0.617188 18.582031 -1.722656 16.875 -3.234375 C 15.175781 -4.742188 13.8125 -6.632812 12.78125 -8.90625 C 11.757812 -11.175781 11.25 -13.898438 11.25 -17.078125 L 11.25 -77.078125 L 2.1875 -77.078125 L 2.1875 -82.90625 C 3.695312 -82.90625 5.800781 -83.296875 8.5 -84.078125 C 11.195312 -84.859375 13.960938 -86.164062 16.796875 -88 C 19.628906 -89.84375 22.257812 -92.300781 24.6875 -95.375 C 27.125 -98.445312 28.851562 -102.253906 29.875 -106.796875 L 36.359375 -106.796875 L 36.359375 -82.90625 L 49.546875 -82.90625 C 53.867188 -82.90625 56.03125 -83.632812 56.03125 -85.09375 C 56.03125 -85.632812 55.757812 -86 55.21875 -86.1875 C 54.675781 -86.375 54.066406 -86.613281 53.390625 -86.90625 C 52.722656 -87.207031 52.117188 -87.628906 51.578125 -88.171875 C 51.035156 -88.710938 50.765625 -89.601562 50.765625 -90.84375 C 50.765625 -92.351562 51.234375 -93.539062 52.171875 -94.40625 C 53.117188 -95.269531 54.347656 -95.703125 55.859375 -95.703125 C 56.835938 -95.703125 57.691406 -95.5 58.421875 -95.09375 C 59.148438 -94.6875 59.753906 -94.144531 60.234375 -93.46875 C 60.722656 -92.789062 61.085938 -92.019531 61.328125 -91.15625 C 61.566406 -90.300781 61.6875 -89.441406 61.6875 -88.578125 C 61.6875 -85.066406 60.675781 -82.269531 58.65625 -80.1875 C 56.632812 -78.113281 53.382812 -77.078125 48.90625 -77.078125 Z M 36.359375 -77.078125 "/></g></g></g><g fill="#1b4a56" fill-opacity="1"><g transform="translate(466.055913, 200.772433)"><g><path d="M 4.9375 -41.453125 C 4.9375 -48.523438 5.960938 -54.71875 8.015625 -60.03125 C 10.066406 -65.351562 12.804688 -69.796875 16.234375 -73.359375 C 19.660156 -76.921875 23.640625 -79.59375 28.171875 -81.375 C 32.703125 -83.15625 37.453125 -84.046875 42.421875 -84.046875 C 47.390625 -84.046875 52.140625 -83.21875 56.671875 -81.5625 C 61.203125 -79.914062 65.179688 -77.394531 68.609375 -74 C 72.035156 -70.601562 74.773438 -66.300781 76.828125 -61.09375 C 78.878906 -55.882812 79.90625 -49.71875 79.90625 -42.59375 C 79.90625 -35.519531 78.878906 -29.253906 76.828125 -23.796875 C 74.773438 -18.347656 72.035156 -13.757812 68.609375 -10.03125 C 65.179688 -6.3125 61.203125 -3.492188 56.671875 -1.578125 C 52.140625 0.335938 47.390625 1.296875 42.421875 1.296875 C 37.453125 1.296875 32.703125 0.394531 28.171875 -1.40625 C 23.640625 -3.21875 19.660156 -5.90625 16.234375 -9.46875 C 12.804688 -13.03125 10.066406 -17.484375 8.015625 -22.828125 C 5.960938 -28.171875 4.9375 -34.378906 4.9375 -41.453125 Z M 54.734375 -42.265625 C 54.734375 -46.578125 54.582031 -50.742188 54.28125 -54.765625 C 53.988281 -58.785156 53.410156 -62.359375 52.546875 -65.484375 C 51.679688 -68.617188 50.4375 -71.117188 48.8125 -72.984375 C 47.195312 -74.847656 45.066406 -75.78125 42.421875 -75.78125 C 39.773438 -75.78125 37.640625 -74.796875 36.015625 -72.828125 C 34.398438 -70.859375 33.160156 -68.265625 32.296875 -65.046875 C 31.441406 -61.835938 30.878906 -58.179688 30.609375 -54.078125 C 30.335938 -49.984375 30.203125 -45.773438 30.203125 -41.453125 C 30.203125 -37.128906 30.335938 -32.90625 30.609375 -28.78125 C 30.878906 -24.65625 31.441406 -20.972656 32.296875 -17.734375 C 33.160156 -14.492188 34.398438 -11.890625 36.015625 -9.921875 C 37.640625 -7.953125 39.773438 -6.96875 42.421875 -6.96875 C 45.066406 -6.96875 47.195312 -7.988281 48.8125 -10.03125 C 50.4375 -12.082031 51.679688 -14.78125 52.546875 -18.125 C 53.410156 -21.476562 53.988281 -25.257812 54.28125 -29.46875 C 54.582031 -33.675781 54.734375 -37.941406 54.734375 -42.265625 Z M 54.734375 -42.265625 "/></g></g></g><g fill="#1b4a56" fill-opacity="1"><g transform="translate(550.968202, 200.772433)"><g><path d="M 35.953125 -66.953125 C 38.003906 -70.085938 40.1875 -72.921875 42.5 -75.453125 C 43.476562 -76.535156 44.53125 -77.585938 45.65625 -78.609375 C 46.789062 -79.640625 47.960938 -80.554688 49.171875 -81.359375 C 50.390625 -82.171875 51.644531 -82.820312 52.9375 -83.3125 C 54.238281 -83.800781 55.539062 -84.046875 56.84375 -84.046875 C 59.59375 -84.046875 61.75 -83.21875 63.3125 -81.5625 C 64.875 -79.914062 65.65625 -77.609375 65.65625 -74.640625 C 65.65625 -72.804688 65.503906 -71.039062 65.203125 -69.34375 C 64.910156 -67.644531 64.332031 -65.582031 63.46875 -63.15625 L 61.203125 -63.15625 C 60.878906 -64.820312 60.125 -66.207031 58.9375 -67.3125 C 57.75 -68.425781 56.023438 -68.984375 53.765625 -68.984375 C 52.085938 -68.984375 50.4375 -68.671875 48.8125 -68.046875 C 47.195312 -67.429688 45.617188 -66.660156 44.078125 -65.734375 C 42.546875 -64.816406 41.085938 -63.816406 39.703125 -62.734375 C 38.328125 -61.660156 37.078125 -60.640625 35.953125 -59.671875 L 35.953125 -7.125 C 35.953125 -6.425781 35.84375 -5.585938 35.625 -4.609375 C 35.40625 -3.640625 34.878906 -2.722656 34.046875 -1.859375 C 33.210938 -0.992188 31.96875 -0.253906 30.3125 0.359375 C 28.664062 0.984375 26.414062 1.296875 23.5625 1.296875 C 20.695312 1.296875 18.441406 0.957031 16.796875 0.28125 C 15.148438 -0.394531 13.894531 -1.191406 13.03125 -2.109375 C 12.164062 -3.023438 11.625 -3.96875 11.40625 -4.9375 C 11.195312 -5.90625 11.09375 -6.6875 11.09375 -7.28125 L 11.09375 -69.796875 C 11.09375 -71.359375 10.726562 -72.71875 10 -73.875 C 9.269531 -75.039062 8.039062 -75.625 6.3125 -75.625 C 5.394531 -75.625 4.613281 -75.457031 3.96875 -75.125 C 3.320312 -74.800781 2.617188 -74.34375 1.859375 -73.75 L 0.15625 -75.78125 C 1.40625 -76.800781 2.796875 -77.8125 4.328125 -78.8125 C 5.867188 -79.8125 7.53125 -80.6875 9.3125 -81.4375 C 11.09375 -82.195312 13.007812 -82.820312 15.0625 -83.3125 C 17.113281 -83.800781 19.269531 -84.046875 21.53125 -84.046875 C 23.851562 -84.046875 25.835938 -83.734375 27.484375 -83.109375 C 29.128906 -82.484375 30.476562 -81.671875 31.53125 -80.671875 C 32.582031 -79.679688 33.40625 -78.5625 34 -77.3125 C 34.59375 -76.070312 35.035156 -74.816406 35.328125 -73.546875 C 35.628906 -72.285156 35.804688 -71.070312 35.859375 -69.90625 C 35.921875 -68.75 35.953125 -67.765625 35.953125 -66.953125 Z M 35.953125 -66.953125 "/></g></g></g><g fill="#1b4a56" fill-opacity="1"><g transform="translate(616.77725, 200.772433)"><g><path d="M 46.546875 -41.9375 C 46.546875 -43.289062 46.113281 -44.316406 45.25 -45.015625 C 44.394531 -45.710938 43.289062 -46.0625 41.9375 -46.0625 C 40.050781 -46.0625 38.253906 -45.628906 36.546875 -44.765625 C 34.847656 -43.910156 33.351562 -42.644531 32.0625 -40.96875 C 30.769531 -39.289062 29.742188 -37.222656 28.984375 -34.765625 C 28.222656 -32.316406 27.84375 -29.472656 27.84375 -26.234375 C 27.84375 -23.097656 28.070312 -20.503906 28.53125 -18.453125 C 29 -16.410156 29.625 -14.78125 30.40625 -13.5625 C 31.1875 -12.34375 32.085938 -11.488281 33.109375 -11 C 34.140625 -10.519531 35.222656 -10.28125 36.359375 -10.28125 C 37.753906 -10.28125 39.070312 -10.644531 40.3125 -11.375 C 41.5625 -12.101562 42.644531 -13.035156 43.5625 -14.171875 C 44.476562 -15.304688 45.203125 -16.570312 45.734375 -17.96875 C 46.273438 -19.375 46.546875 -20.78125 46.546875 -22.1875 Z M 33.6875 -77.40625 C 31.84375 -77.40625 30.140625 -77.1875 28.578125 -76.75 C 27.015625 -76.320312 25.664062 -75.78125 24.53125 -75.125 C 23.394531 -74.476562 22.503906 -73.765625 21.859375 -72.984375 C 21.210938 -72.203125 20.890625 -71.460938 20.890625 -70.765625 C 20.890625 -69.953125 21.304688 -69.367188 22.140625 -69.015625 C 22.972656 -68.671875 23.898438 -68.269531 24.921875 -67.8125 C 25.953125 -67.351562 26.882812 -66.703125 27.71875 -65.859375 C 28.5625 -65.023438 28.984375 -63.742188 28.984375 -62.015625 C 28.984375 -60.878906 28.753906 -59.835938 28.296875 -58.890625 C 27.835938 -57.953125 27.21875 -57.117188 26.4375 -56.390625 C 25.65625 -55.660156 24.738281 -55.09375 23.6875 -54.6875 C 22.632812 -54.28125 21.539062 -54.078125 20.40625 -54.078125 C 17.382812 -54.078125 14.941406 -55.101562 13.078125 -57.15625 C 11.210938 -59.207031 10.28125 -61.9375 10.28125 -65.34375 C 10.28125 -68.632812 11.144531 -71.453125 12.875 -73.796875 C 14.601562 -76.140625 16.851562 -78.066406 19.625 -79.578125 C 22.40625 -81.097656 25.550781 -82.222656 29.0625 -82.953125 C 32.570312 -83.679688 36.082031 -84.046875 39.59375 -84.046875 C 43.800781 -84.046875 47.820312 -83.582031 51.65625 -82.65625 C 55.488281 -81.738281 58.875 -80.28125 61.8125 -78.28125 C 64.757812 -76.289062 67.109375 -73.753906 68.859375 -70.671875 C 70.609375 -67.597656 71.484375 -63.878906 71.484375 -59.515625 L 71.484375 -13.765625 C 71.484375 -13.273438 71.507812 -12.734375 71.5625 -12.140625 C 71.625 -11.546875 71.757812 -11.003906 71.96875 -10.515625 C 72.1875 -10.035156 72.507812 -9.632812 72.9375 -9.3125 C 73.375 -8.988281 74 -8.828125 74.8125 -8.828125 C 75.78125 -8.828125 76.679688 -9.191406 77.515625 -9.921875 C 78.359375 -10.648438 79.101562 -11.390625 79.75 -12.140625 L 81.765625 -10.4375 C 80.960938 -9.3125 79.992188 -8.070312 78.859375 -6.71875 C 77.722656 -5.375 76.34375 -4.109375 74.71875 -2.921875 C 73.101562 -1.734375 71.21875 -0.734375 69.0625 0.078125 C 66.90625 0.890625 64.445312 1.296875 61.6875 1.296875 C 58.289062 1.296875 55.269531 0.285156 52.625 -1.734375 C 49.976562 -3.765625 48.25 -6.882812 47.4375 -11.09375 C 45.71875 -8.769531 43.925781 -6.828125 42.0625 -5.265625 C 40.195312 -3.703125 38.289062 -2.429688 36.34375 -1.453125 C 34.40625 -0.484375 32.453125 0.210938 30.484375 0.640625 C 28.515625 1.078125 26.53125 1.296875 24.53125 1.296875 C 21.9375 1.296875 19.425781 0.890625 17 0.078125 C 14.570312 -0.734375 12.398438 -2.015625 10.484375 -3.765625 C 8.566406 -5.515625 7.023438 -7.789062 5.859375 -10.59375 C 4.703125 -13.40625 4.125 -16.835938 4.125 -20.890625 C 4.125 -25.796875 5.09375 -29.8125 7.03125 -32.9375 C 8.976562 -36.070312 11.53125 -38.707031 14.6875 -40.84375 C 17.851562 -42.976562 21.445312 -44.800781 25.46875 -46.3125 C 29.488281 -47.820312 33.601562 -49.414062 37.8125 -51.09375 C 40.9375 -52.332031 43.210938 -54.175781 44.640625 -56.625 C 46.078125 -59.082031 46.796875 -61.609375 46.796875 -64.203125 C 46.796875 -68.191406 45.617188 -71.390625 43.265625 -73.796875 C 40.921875 -76.203125 37.726562 -77.40625 33.6875 -77.40625 Z M 33.6875 -77.40625 "/></g></g></g></svg>